<svg width="63" height="12" viewBox="0 0 63 12" fill="none" xmlns="http://www.w3.org/2000/svg">
<path d="M-8.97646e-05 11.792V-8.58307e-06H7.77591V1.34399H1.45591V4.92799H7.10391V6.25599H1.45591V10.448H7.77591V11.792H-8.97646e-05ZM12.3199 11.792V1.34399H8.81591V-8.58307e-06H17.2799V1.34399H13.7759V11.792H12.3199ZM18.8749 11.792V-8.58307e-06H20.3309V4.94399H26.1709V-8.58307e-06H27.6269V11.792H26.1709V6.23999H20.3309V11.792H18.8749ZM30.1185 11.792V-8.58307e-06H37.9905L39.7665 1.77599V4.60799L38.9665 5.42399L40.2305 6.60799V10.016L38.4545 11.792H30.1185ZM33.1105 4.57599H36.3425L36.9025 4.01599V2.83199L36.3425 2.27199H33.1105V4.57599ZM33.1105 9.51999H36.6785L37.2385 8.95999V7.21599L36.6785 6.65599H33.1105V9.51999ZM43.3558 11.792L41.5798 10.016V1.77599L43.3558 -8.58307e-06H49.4198L51.2118 1.77599V4.15999H48.2998V2.83199L47.7238 2.27199H45.1478L44.5718 2.83199V8.95999L45.1478 9.51999H47.8198L48.4118 8.95999V7.61599H51.3078V10.016L49.5318 11.792H43.3558ZM54.0745 11.792L52.2985 10.016V1.77599L54.0745 -8.58307e-06H60.1385L61.9305 1.77599V4.15999H59.0185V2.83199L58.4425 2.27199H55.8665L55.2905 2.83199V8.95999L55.8665 9.51999H58.5385L59.1305 8.95999V7.61599H62.0265V10.016L60.2505 11.792H54.0745Z" fill="black"/>
</svg>
