<svg id="Layer_1" data-name="Layer 1" xmlns="http://www.w3.org/2000/svg" viewBox="0 0 1170 405"><defs><style>.cls-1{fill:#162238;}</style></defs><title>logo-dark</title><path class="cls-1" d="M367.41,216.76a2.79,2.79,0,0,1-.86-2V145.5a2.94,2.94,0,0,1,2.9-2.9H405q15.23,0,22.45,5.58t7.24,16.93a13.41,13.41,0,0,1-2.68,8.2,16.93,16.93,0,0,1-5.9,5.19,15.87,15.87,0,0,1,7.24,6.06,16.54,16.54,0,0,1,2.94,9.48q0,11.9-7.71,17.74t-22.51,5.84H369.45A2.79,2.79,0,0,1,367.41,216.76Zm34.93-46a3.88,3.88,0,0,0,3.27-1.45,5.33,5.33,0,0,0,1.13-3.37,5.56,5.56,0,0,0-1.13-3.43,3.84,3.84,0,0,0-3.27-1.5h-9v9.75Zm1,28.39a4.35,4.35,0,0,0,3.69-1.6,5.86,5.86,0,0,0,1.24-3.65,5.56,5.56,0,0,0-1.34-3.64,4.45,4.45,0,0,0-3.59-1.61h-10v10.5Z"/><path class="cls-1" d="M447.13,216.76a2.78,2.78,0,0,1-.85-2V145.5a2.92,2.92,0,0,1,2.89-2.9H470.6a2.94,2.94,0,0,1,2.9,2.9v50.15h29.68a2.94,2.94,0,0,1,2.89,2.89v16.18a2.75,2.75,0,0,1-.86,2,2.78,2.78,0,0,1-2,.86h-54A2.81,2.81,0,0,1,447.13,216.76Z"/><path class="cls-1" d="M521.93,211.29q-9.54-7.39-10.18-21.54-.11-2.88-.11-9.32t.11-9.54A29.14,29.14,0,0,1,516.63,155,28.38,28.38,0,0,1,529.11,145,51.23,51.23,0,0,1,566,145,28.46,28.46,0,0,1,578.46,155a29.22,29.22,0,0,1,4.87,15.85c.14,4,.22,7.18.22,9.54s-.08,5.47-.22,9.32q-.65,14.15-10.18,21.54t-25.61,7.4Q531.48,218.69,521.93,211.29Zm31.34-15.64q2.1-2.15,2.2-6.54c.14-4.14.22-7.18.22-9.11s-.08-5-.22-8.89q-.11-4.4-2.25-6.54a8.61,8.61,0,0,0-11.36,0q-2.15,2.15-2.25,6.54-.11,2.89-.11,8.89t.11,9.11c.07,2.93.81,5.11,2.2,6.54a8.74,8.74,0,0,0,11.46,0Z"/><path class="cls-1" d="M602.51,211.56q-9.54-7.12-10.18-21.91-.11-2.9-.1-9.43t.1-9.65q.64-14.35,10.4-21.7t25.5-7.34a52.35,52.35,0,0,1,17.74,2.9,29.68,29.68,0,0,1,13.18,9q5.08,6.17,5.19,15.49a2.36,2.36,0,0,1-2.35,2.35H640.13a4,4,0,0,1-2.52-.64,5.49,5.49,0,0,1-1.45-2.46,8.79,8.79,0,0,0-3.11-4.5,8.68,8.68,0,0,0-4.93-1.29,7.93,7.93,0,0,0-5.78,2c-1.36,1.32-2.08,3.56-2.15,6.7q-.11,2.89-.1,8.89t.1,9.11q.1,4.72,2.15,6.7a7.93,7.93,0,0,0,5.78,2,7.76,7.76,0,0,0,8-5.79,4.9,4.9,0,0,1,1.34-2.46,4.23,4.23,0,0,1,2.63-.64H662a2.36,2.36,0,0,1,2.35,2.35q-.11,9.33-5.19,15.49a29.68,29.68,0,0,1-13.18,9,52.35,52.35,0,0,1-17.74,2.9Q612,218.69,602.51,211.56Z"/><path class="cls-1" d="M674.74,216.76a2.75,2.75,0,0,1-.86-2V145.5a2.75,2.75,0,0,1,.86-2,2.78,2.78,0,0,1,2-.86h20.47a2.82,2.82,0,0,1,2,.86,2.78,2.78,0,0,1,.85,2v21.22L712.24,145a4.51,4.51,0,0,1,4.29-2.36h23.68a2.35,2.35,0,0,1,2,3.54L723,178.5l21.11,35.58a2,2,0,0,1,.32,1.18,2.25,2.25,0,0,1-.7,1.66,2.28,2.28,0,0,1-1.66.7H717.6a4.66,4.66,0,0,1-2.89-.81,4.75,4.75,0,0,1-1.5-1.66l-13.08-23.36v22.93a2.78,2.78,0,0,1-.85,2,2.82,2.82,0,0,1-2,.86H676.77A2.78,2.78,0,0,1,674.74,216.76Z"/><path class="cls-1" d="M756.18,211.56q-9.54-7.12-10.18-21.91c-.08-1.93-.11-5.07-.11-9.43s0-7.65.11-9.65q.64-14.35,10.39-21.7t25.51-7.34a52.29,52.29,0,0,1,17.73,2.9,29.63,29.63,0,0,1,13.18,9q5.09,6.17,5.2,15.49a2.3,2.3,0,0,1-.7,1.66,2.27,2.27,0,0,1-1.66.69H793.79a4,4,0,0,1-2.52-.64,5.49,5.49,0,0,1-1.44-2.46,8.85,8.85,0,0,0-3.11-4.5,8.71,8.71,0,0,0-4.93-1.29,8,8,0,0,0-5.79,2c-1.36,1.32-2.07,3.56-2.14,6.7q-.11,2.89-.11,8.89t.11,9.11q.1,4.72,2.14,6.7a8,8,0,0,0,5.79,2,7.77,7.77,0,0,0,8-5.79,4.9,4.9,0,0,1,1.33-2.46,4.23,4.23,0,0,1,2.63-.64h21.86a2.27,2.27,0,0,1,1.66.69,2.3,2.3,0,0,1,.7,1.66q-.1,9.33-5.2,15.49a29.63,29.63,0,0,1-13.18,9,52.29,52.29,0,0,1-17.73,2.9Q765.72,218.69,756.18,211.56Z"/><path class="cls-1" d="M828.4,216.81a2.73,2.73,0,0,1-.86-2.09V145.5a2.94,2.94,0,0,1,2.9-2.9h21a2.82,2.82,0,0,1,2,.86,2.78,2.78,0,0,1,.85,2V168h17.36V145.5a2.94,2.94,0,0,1,2.9-2.9h21a2.82,2.82,0,0,1,2,.86,2.78,2.78,0,0,1,.85,2v69.22a2.78,2.78,0,0,1-.85,2,2.82,2.82,0,0,1-2,.86h-21a2.94,2.94,0,0,1-2.9-2.9V191.58H854.33v23.14a2.78,2.78,0,0,1-.85,2,2.82,2.82,0,0,1-2,.86h-21A2.86,2.86,0,0,1,828.4,216.81Z"/><path class="cls-1" d="M906.14,216.92a2.27,2.27,0,0,1-.69-1.66,2.39,2.39,0,0,1,.1-.75l23.9-68.37a5.36,5.36,0,0,1,1.61-2.46,4.55,4.55,0,0,1,3.21-1.08h23.25a4.59,4.59,0,0,1,3.22,1.08,5.53,5.53,0,0,1,1.61,2.46l23.89,68.37a2.37,2.37,0,0,1,.11.75,2.39,2.39,0,0,1-2.36,2.36H964.17a4,4,0,0,1-4.18-2.68l-2.57-7.08h-23l-2.57,7.08a4,4,0,0,1-4.18,2.68H907.8A2.3,2.3,0,0,1,906.14,216.92ZM939.84,187H952L945.84,167Z"/><path class="cls-1" d="M994.17,216.76a2.79,2.79,0,0,1-.86-2V145.5a2.94,2.94,0,0,1,2.9-2.9h21.86a2.94,2.94,0,0,1,2.89,2.9v69.22a2.94,2.94,0,0,1-2.89,2.9H996.21A2.79,2.79,0,0,1,994.17,216.76Z"/><path class="cls-1" d="M1034.68,216.76a2.75,2.75,0,0,1-.86-2V145.5a2.75,2.75,0,0,1,.86-2,2.78,2.78,0,0,1,2-.86h16.93a4.71,4.71,0,0,1,4.4,2.47l18.11,29.68V145.5a2.92,2.92,0,0,1,2.89-2.9h19.4a2.94,2.94,0,0,1,2.89,2.9v69.22a2.94,2.94,0,0,1-2.89,2.9H1081.5a4.45,4.45,0,0,1-2.78-.75,7.48,7.48,0,0,1-1.61-1.72L1059,187.83v26.89a2.75,2.75,0,0,1-.86,2,2.78,2.78,0,0,1-2,.86h-19.4A2.78,2.78,0,0,1,1034.68,216.76Z"/><path class="cls-1" d="M375.69,278.82a14.07,14.07,0,0,1-5.92-4.41,10.45,10.45,0,0,1-2.15-5.88,1.24,1.24,0,0,1,.39-.9,1.27,1.27,0,0,1,1-.38h3.15a1.64,1.64,0,0,1,1.61,1.28,7.69,7.69,0,0,0,3.31,4.66q2.73,2,7.81,2c3.64,0,6.37-.64,8.17-1.92a6.21,6.21,0,0,0,2.7-5.34,5.06,5.06,0,0,0-1.32-3.6,11.08,11.08,0,0,0-3.92-2.48c-1.74-.71-4.34-1.57-7.81-2.6a38.69,38.69,0,0,1-7.88-3,11.72,11.72,0,0,1-4.41-4,11,11,0,0,1-1.47-5.94,10.77,10.77,0,0,1,1.86-6.21,12.46,12.46,0,0,1,5.4-4.31,20.45,20.45,0,0,1,8.36-1.57,19.14,19.14,0,0,1,8.58,1.77,14.1,14.1,0,0,1,5.44,4.43,10.25,10.25,0,0,1,2,5.37,1.33,1.33,0,0,1-1.35,1.35H396a1.65,1.65,0,0,1-1-.32,1.76,1.76,0,0,1-.64-1,6.48,6.48,0,0,0-3.09-4.57,11.91,11.91,0,0,0-6.75-1.8,12.44,12.44,0,0,0-6.94,1.7,5.66,5.66,0,0,0-2.58,5.05,5.54,5.54,0,0,0,1.19,3.67,10.11,10.11,0,0,0,3.67,2.5,63.7,63.7,0,0,0,7.23,2.51,51.44,51.44,0,0,1,8.58,3.09,11.77,11.77,0,0,1,4.67,3.82,10.31,10.31,0,0,1,1.54,5.89,11,11,0,0,1-4.6,9.41q-4.59,3.38-12.44,3.38A23.15,23.15,0,0,1,375.69,278.82Z"/><path class="cls-1" d="M422.11,279.43a1.43,1.43,0,0,1-.42-1.06v-38H409.28a1.44,1.44,0,0,1-1.48-1.48v-2.51a1.51,1.51,0,0,1,.42-1.12,1.43,1.43,0,0,1,1.06-.42h30.87a1.41,1.41,0,0,1,1.09.42,1.57,1.57,0,0,1,.38,1.12v2.51a1.46,1.46,0,0,1-.41,1.06,1.45,1.45,0,0,1-1.06.42H427.8v38a1.38,1.38,0,0,1-.45,1.06,1.53,1.53,0,0,1-1.09.42h-3.09A1.43,1.43,0,0,1,422.11,279.43Z"/><path class="cls-1" d="M455.06,276q-4.5-4.47-4.5-13.53V236.38a1.57,1.57,0,0,1,.39-1.12,1.31,1.31,0,0,1,1-.42h3.09a1.43,1.43,0,0,1,1.54,1.54v26.24q0,6.3,2.93,9.38c2,2.06,4.72,3.09,8.33,3.09s6.31-1,8.26-3.12,2.92-5.2,2.92-9.35V236.38a1.57,1.57,0,0,1,.39-1.12,1.41,1.41,0,0,1,1.09-.42h3.09a1.43,1.43,0,0,1,1.06.42,1.51,1.51,0,0,1,.42,1.12v26.11q0,9.06-4.47,13.53t-12.76,4.47Q459.56,280.49,455.06,276Z"/><path class="cls-1" d="M498.33,279.43a1.48,1.48,0,0,1-.38-1.06v-42a1.57,1.57,0,0,1,.38-1.12,1.33,1.33,0,0,1,1-.42h14.53q9.71,0,14,4.34c2.87,2.89,4.35,7.26,4.43,13.08,0,1.25.07,2.92.07,5s0,3.79-.07,5.08a24.23,24.23,0,0,1-2,9.93,11.78,11.78,0,0,1-5.75,5.69,24.41,24.41,0,0,1-10.42,1.87H499.36A1.33,1.33,0,0,1,498.33,279.43Zm15.56-4.92a17.18,17.18,0,0,0,7.17-1.25,7.7,7.7,0,0,0,3.86-3.93,19.52,19.52,0,0,0,1.32-7.23c.08-2.57.12-4.18.12-4.82s0-2.27-.12-4.76q-.13-6.42-3.06-9.42t-9.61-3H504v34.4Z"/><path class="cls-1" d="M544.56,279.43a1.49,1.49,0,0,1-.39-1.06v-42a1.57,1.57,0,0,1,.39-1.12,1.33,1.33,0,0,1,1-.42H572a1.53,1.53,0,0,1,1.13.42,1.51,1.51,0,0,1,.42,1.12v2.32a1.33,1.33,0,0,1-.42,1,1.64,1.64,0,0,1-1.13.38H550.09v14.34H570.6a1.45,1.45,0,0,1,1.54,1.54v2.19a1.43,1.43,0,0,1-.42,1.06,1.51,1.51,0,0,1-1.12.42H550.09v14.85h22.44a1.45,1.45,0,0,1,1.54,1.54v2.32a1.38,1.38,0,0,1-.45,1.06,1.53,1.53,0,0,1-1.09.42H545.59A1.33,1.33,0,0,1,544.56,279.43Z"/><path class="cls-1" d="M585.45,279.43a1.49,1.49,0,0,1-.39-1.06v-42a1.57,1.57,0,0,1,.39-1.12,1.33,1.33,0,0,1,1-.42h2.83a1.51,1.51,0,0,1,1,.26,4.33,4.33,0,0,1,.65.64l21.53,33.18V236.38a1.51,1.51,0,0,1,.42-1.12,1.43,1.43,0,0,1,1.06-.42h2.9a1.45,1.45,0,0,1,1.54,1.54V278.3a1.56,1.56,0,0,1-.42,1.1,1.38,1.38,0,0,1-1.06.45H614a1.59,1.59,0,0,1-1.55-.9l-21.53-32.86v32.28a1.43,1.43,0,0,1-.42,1.06,1.45,1.45,0,0,1-1.06.42h-3A1.33,1.33,0,0,1,585.45,279.43Z"/><path class="cls-1" d="M641.87,279.43a1.43,1.43,0,0,1-.42-1.06v-38H629a1.44,1.44,0,0,1-1.48-1.48v-2.51a1.51,1.51,0,0,1,.42-1.12,1.43,1.43,0,0,1,1.06-.42H659.9a1.42,1.42,0,0,1,1.1.42,1.62,1.62,0,0,1,.38,1.12v2.51A1.43,1.43,0,0,1,661,240a1.42,1.42,0,0,1-1.06.42H647.56v38a1.38,1.38,0,0,1-.45,1.06,1.55,1.55,0,0,1-1.09.42h-3.09A1.43,1.43,0,0,1,641.87,279.43Z"/><path class="cls-1" d="M681.19,279.46a1.24,1.24,0,0,1-.39-.9l.13-.71,15.94-41.59a2,2,0,0,1,2.06-1.42h4.12a2,2,0,0,1,2.05,1.42l15.95,41.59.13.71a1.2,1.2,0,0,1-.42.9,1.34,1.34,0,0,1-.93.39h-3a1.69,1.69,0,0,1-1.6-1.1l-3.6-9.25H690.32l-3.54,9.25a1.69,1.69,0,0,1-1.61,1.1h-3.08A1.2,1.2,0,0,1,681.19,279.46Zm11-15.3H709.8L701,241.08Z"/><path class="cls-1" d="M734.65,278.82a14,14,0,0,1-5.92-4.41,10.37,10.37,0,0,1-2.15-5.88,1.27,1.27,0,0,1,.38-.9,1.3,1.3,0,0,1,1-.38h3.15a1.64,1.64,0,0,1,1.61,1.28,7.65,7.65,0,0,0,3.31,4.66q2.73,2,7.81,2,5.46,0,8.16-1.92a6.21,6.21,0,0,0,2.7-5.34,5.1,5.1,0,0,0-1.31-3.6,11,11,0,0,0-3.93-2.48c-1.73-.71-4.34-1.57-7.81-2.6a38.81,38.81,0,0,1-7.87-3,11.64,11.64,0,0,1-4.41-4,11,11,0,0,1-1.48-5.94,10.7,10.7,0,0,1,1.87-6.21,12.46,12.46,0,0,1,5.4-4.31,20.41,20.41,0,0,1,8.36-1.57,19.14,19.14,0,0,1,8.58,1.77,14,14,0,0,1,5.43,4.43,10.19,10.19,0,0,1,2,5.37,1.27,1.27,0,0,1-.39,1,1.3,1.3,0,0,1-1,.39h-3.22a1.65,1.65,0,0,1-1-.32,1.78,1.78,0,0,1-.65-1,6.44,6.44,0,0,0-3.08-4.57,11.91,11.91,0,0,0-6.75-1.8,12.5,12.5,0,0,0-7,1.7,5.68,5.68,0,0,0-2.57,5.05,5.54,5.54,0,0,0,1.19,3.67,9.93,9.93,0,0,0,3.67,2.5,63,63,0,0,0,7.23,2.51,51.78,51.78,0,0,1,8.58,3.09,11.74,11.74,0,0,1,4.66,3.82,10.31,10.31,0,0,1,1.55,5.89,11,11,0,0,1-4.6,9.41q-4.61,3.38-12.44,3.38A23.12,23.12,0,0,1,734.65,278.82Z"/><path class="cls-1" d="M776.5,278.82a14,14,0,0,1-5.91-4.41,10.46,10.46,0,0,1-2.16-5.88,1.24,1.24,0,0,1,.39-.9,1.3,1.3,0,0,1,1-.38h3.15a1.63,1.63,0,0,1,1.61,1.28,7.73,7.73,0,0,0,3.31,4.66q2.73,2,7.82,2,5.46,0,8.16-1.92a6.21,6.21,0,0,0,2.7-5.34,5.06,5.06,0,0,0-1.32-3.6,11,11,0,0,0-3.92-2.48c-1.74-.71-4.34-1.57-7.81-2.6a38.93,38.93,0,0,1-7.88-3,11.61,11.61,0,0,1-4.4-4,10.9,10.9,0,0,1-1.48-5.94,10.77,10.77,0,0,1,1.86-6.21,12.55,12.55,0,0,1,5.41-4.31,20.36,20.36,0,0,1,8.35-1.57,19.16,19.16,0,0,1,8.59,1.77,14,14,0,0,1,5.43,4.43,10.17,10.17,0,0,1,2,5.37,1.32,1.32,0,0,1-1.35,1.35h-3.21a1.66,1.66,0,0,1-1-.32,1.76,1.76,0,0,1-.64-1,6.48,6.48,0,0,0-3.09-4.57,11.91,11.91,0,0,0-6.75-1.8,12.46,12.46,0,0,0-6.94,1.7,5.66,5.66,0,0,0-2.57,5.05,5.49,5.49,0,0,0,1.19,3.67,10,10,0,0,0,3.66,2.5,63.29,63.29,0,0,0,7.24,2.51A51.78,51.78,0,0,1,796.5,258a11.74,11.74,0,0,1,4.66,3.82,10.31,10.31,0,0,1,1.54,5.89,11,11,0,0,1-4.59,9.41q-4.61,3.38-12.44,3.38A23.2,23.2,0,0,1,776.5,278.82Z"/><path class="cls-1" d="M816.33,276.09q-4.56-4.41-4.82-13.28c0-1.29-.06-3.11-.06-5.47s0-4.15.06-5.4q.25-8.74,5-13.24t12.77-4.5q8,0,12.73,4.5t5,13.24c.08,2.49.13,4.29.13,5.4s-.05,2.9-.13,5.47q-.26,8.87-4.79,13.28t-12.89,4.4C823.68,280.49,819.38,279,816.33,276.09Zm21.16-4q3.07-3.12,3.34-9.55c.09-2.57.13-4.29.13-5.15s0-2.65-.13-5.14q-.26-6.44-3.34-9.58a12.38,12.38,0,0,0-16.5,0q-3.11,3.15-3.31,9.58c0,1.24-.06,3-.06,5.14s0,3.86.06,5.15q.2,6.42,3.28,9.55a12.54,12.54,0,0,0,16.53,0Z"/><path class="cls-1" d="M861.63,275.83q-4.47-4.66-4.79-12.76c-.05-1.16-.07-3.05-.07-5.66s0-4.59.07-5.79q.31-8.1,4.79-12.76t13-4.66a21.28,21.28,0,0,1,9.71,2,14.4,14.4,0,0,1,8.23,12.32,1.17,1.17,0,0,1-.42.93,1.52,1.52,0,0,1-1,.35H888a1.53,1.53,0,0,1-1-.32,2,2,0,0,1-.58-1.09q-1.1-4.95-4-6.95a13.44,13.44,0,0,0-7.75-2q-11.19,0-11.64,12.47-.06,1.74-.06,5.34t.06,5.46q.45,12.42,11.64,12.41a13.36,13.36,0,0,0,7.71-2q2.89-2,4-6.88a2,2,0,0,1,.58-1.09,1.53,1.53,0,0,1,1-.32h3.21a1.47,1.47,0,0,1,1,.35,1.17,1.17,0,0,1,.42.93,14.37,14.37,0,0,1-8.23,12.31,21.28,21.28,0,0,1-9.71,2Q866.1,280.49,861.63,275.83Z"/><path class="cls-1" d="M903.71,279.43a1.49,1.49,0,0,1-.39-1.06V236.32a1.49,1.49,0,0,1,.39-1.06,1.33,1.33,0,0,1,1-.42H908a1.35,1.35,0,0,1,1.48,1.48v42.05a1.44,1.44,0,0,1-1.48,1.48h-3.21A1.33,1.33,0,0,1,903.71,279.43Z"/><path class="cls-1" d="M918.75,279.46a1.27,1.27,0,0,1-.38-.9l.13-.71,15.94-41.59a2,2,0,0,1,2.06-1.42h4.11a2,2,0,0,1,2.06,1.42l16,41.59.13.71a1.2,1.2,0,0,1-.42.9,1.34,1.34,0,0,1-.94.39h-3a1.57,1.57,0,0,1-1.06-.36,1.59,1.59,0,0,1-.54-.74l-3.6-9.25H927.88l-3.53,9.25a1.7,1.7,0,0,1-1.61,1.1h-3.09A1.24,1.24,0,0,1,918.75,279.46Zm11-15.3h17.62l-8.81-23.08Z"/><path class="cls-1" d="M973.18,279.43a1.43,1.43,0,0,1-.42-1.06v-38H960.35a1.44,1.44,0,0,1-1.48-1.48v-2.51a1.51,1.51,0,0,1,.42-1.12,1.43,1.43,0,0,1,1.06-.42h30.86a1.42,1.42,0,0,1,1.1.42,1.62,1.62,0,0,1,.38,1.12v2.51a1.42,1.42,0,0,1-1.48,1.48H978.87v38a1.38,1.38,0,0,1-.45,1.06,1.55,1.55,0,0,1-1.09.42h-3.09A1.43,1.43,0,0,1,973.18,279.43Z"/><path class="cls-1" d="M1002.4,279.43a1.48,1.48,0,0,1-.38-1.06V236.32a1.48,1.48,0,0,1,.38-1.06,1.33,1.33,0,0,1,1-.42h3.21a1.48,1.48,0,0,1,1.1.39,1.45,1.45,0,0,1,.38,1.09v42.05a1.42,1.42,0,0,1-1.48,1.48h-3.21A1.33,1.33,0,0,1,1002.4,279.43Z"/><path class="cls-1" d="M1024.58,276.09q-4.56-4.41-4.82-13.28c0-1.29-.06-3.11-.06-5.47s0-4.15.06-5.4q.25-8.74,5-13.24t12.77-4.5q8,0,12.73,4.5t5,13.24c.08,2.49.13,4.29.13,5.4s0,2.9-.13,5.47q-.26,8.87-4.79,13.28t-12.89,4.4C1031.93,280.49,1027.63,279,1024.58,276.09Zm21.16-4q3.08-3.12,3.34-9.55c.09-2.57.13-4.29.13-5.15s0-2.65-.13-5.14q-.25-6.44-3.34-9.58a12.38,12.38,0,0,0-16.5,0q-3.1,3.15-3.31,9.58c0,1.24-.06,3-.06,5.14s0,3.86.06,5.15q.19,6.42,3.28,9.55a12.54,12.54,0,0,0,16.53,0Z"/><path class="cls-1" d="M1067.21,279.43a1.49,1.49,0,0,1-.39-1.06v-42a1.57,1.57,0,0,1,.39-1.12,1.33,1.33,0,0,1,1-.42h2.83a1.51,1.51,0,0,1,1,.26,3.87,3.87,0,0,1,.64.64l21.54,33.18V236.38a1.51,1.51,0,0,1,.42-1.12,1.43,1.43,0,0,1,1.06-.42h2.9a1.45,1.45,0,0,1,1.54,1.54V278.3a1.56,1.56,0,0,1-.42,1.1,1.38,1.38,0,0,1-1.06.45h-2.89a1.59,1.59,0,0,1-1.55-.9l-21.54-32.86v32.28a1.42,1.42,0,0,1-.41,1.06,1.45,1.45,0,0,1-1.06.42h-3A1.33,1.33,0,0,1,1067.21,279.43Z"/><path class="cls-1" d="M68.61,283.67l105.33,60.82c3.82,2.2,6.91-.14,6.91-5.22V220.11c0-5.09-3.09-11-6.91-13.19L68.61,146.1c-3.81-2.2-6.9.14-6.9,5.22V270.48C61.71,275.57,64.8,281.47,68.61,283.67Z"/><path class="cls-1" d="M311.18,146.1l-31.75,18.34V250l-16.88-4.59-16.87,24.08V183.92l-39.83,23c-3.81,2.2-6.9,8.1-6.9,13.19V339.27c0,5.08,3.09,7.42,6.9,5.22l105.33-60.82c3.82-2.2,6.91-8.1,6.91-13.19V151.32C318.09,146.24,315,143.9,311.18,146.1Z"/><path class="cls-1" d="M195.67,190.77,301,130c3.81-2.21,3.33-6.05-1.07-8.59L196.74,61.79c-4.4-2.55-11.06-2.82-14.87-.62L76.53,122c-3.81,2.21-3.33,6,1.07,8.59l103.2,59.58C185.2,192.7,191.86,193,195.67,190.77Z"/></svg>